<?xml version="1.0" encoding="UTF-8"?>
<?xml-stylesheet href="https://cdnjs.cloudflare.com/ajax/libs/font-awesome/6.7.2/css/all.min.css" type="text/css"?>
<svg id="graph-3" width="100%" xmlns="http://www.w3.org/2000/svg" class="flowchart" style="overflow: hidden; max-width: 100%; touch-action: none; user-select: none; -webkit-user-drag: none; -webkit-tap-highlight-color: rgba(0, 0, 0, 0); background-color: rgb(2, 8, 23);" role="graphics-document document" aria-roledescription="flowchart-v2" height="100%" xmlns:xlink="http://www.w3.org/1999/xlink" xmlns:ev="http://www.w3.org/2001/xml-events"><g id="viewport-20260408185921682" class="svg-pan-zoom_viewport" transform="matrix(0.5475771830710146,0,0,0.5475771830710146,195.52956559691364,23.685849746076656)" style="transform: matrix(0.547577, 0, 0, 0.547577, 195.53, 23.6858);"><style>#graph-3{font-family:"trebuchet ms",verdana,arial,sans-serif;font-size:16px;fill:#ccc;}@keyframes edge-animation-frame{from{stroke-dashoffset:0;}}@keyframes dash{to{stroke-dashoffset:0;}}#graph-3 .edge-animation-slow{stroke-dasharray:9,5!important;stroke-dashoffset:900;animation:dash 50s linear infinite;stroke-linecap:round;}#graph-3 .edge-animation-fast{stroke-dasharray:9,5!important;stroke-dashoffset:900;animation:dash 20s linear infinite;stroke-linecap:round;}#graph-3 .error-icon{fill:#a44141;}#graph-3 .error-text{fill:#ddd;stroke:#ddd;}#graph-3 .edge-thickness-normal{stroke-width:1px;}#graph-3 .edge-thickness-thick{stroke-width:3.5px;}#graph-3 .edge-pattern-solid{stroke-dasharray:0;}#graph-3 .edge-thickness-invisible{stroke-width:0;fill:none;}#graph-3 .edge-pattern-dashed{stroke-dasharray:3;}#graph-3 .edge-pattern-dotted{stroke-dasharray:2;}#graph-3 .marker{fill:lightgrey;stroke:lightgrey;}#graph-3 .marker.cross{stroke:lightgrey;}#graph-3 svg{font-family:"trebuchet ms",verdana,arial,sans-serif;font-size:16px;}#graph-3 p{margin:0;}#graph-3 .label{font-family:"trebuchet ms",verdana,arial,sans-serif;color:#ccc;}#graph-3 .cluster-label text{fill:#F9FFFE;}#graph-3 .cluster-label span{color:#F9FFFE;}#graph-3 .cluster-label span p{background-color:transparent;}#graph-3 .label text,#graph-3 span{fill:#ccc;color:#ccc;}#graph-3 .node rect,#graph-3 .node circle,#graph-3 .node ellipse,#graph-3 .node polygon,#graph-3 .node path{fill:#1f2020;stroke:#ccc;stroke-width:1px;}#graph-3 .rough-node .label text,#graph-3 .node .label text,#graph-3 .image-shape .label,#graph-3 .icon-shape .label{text-anchor:middle;}#graph-3 .node .katex path{fill:#000;stroke:#000;stroke-width:1px;}#graph-3 .rough-node .label,#graph-3 .node .label,#graph-3 .image-shape .label,#graph-3 .icon-shape .label{text-align:center;}#graph-3 .node.clickable{cursor:pointer;}#graph-3 .root .anchor path{fill:lightgrey!important;stroke-width:0;stroke:lightgrey;}#graph-3 .arrowheadPath{fill:lightgrey;}#graph-3 .edgePath .path{stroke:lightgrey;stroke-width:2.0px;}#graph-3 .flowchart-link{stroke:lightgrey;fill:none;}#graph-3 .edgeLabel{background-color:hsl(0, 0%, 34.4117647059%);text-align:center;}#graph-3 .edgeLabel p{background-color:hsl(0, 0%, 34.4117647059%);}#graph-3 .edgeLabel rect{opacity:0.5;background-color:hsl(0, 0%, 34.4117647059%);fill:hsl(0, 0%, 34.4117647059%);}#graph-3 .labelBkg{background-color:rgba(87.75, 87.75, 87.75, 0.5);}#graph-3 .cluster rect{fill:hsl(180, 1.5873015873%, 28.3529411765%);stroke:rgba(255, 255, 255, 0.25);stroke-width:1px;}#graph-3 .cluster text{fill:#F9FFFE;}#graph-3 .cluster span{color:#F9FFFE;}#graph-3 div.mermaidTooltip{position:absolute;text-align:center;max-width:200px;padding:2px;font-family:"trebuchet ms",verdana,arial,sans-serif;font-size:12px;background:hsl(20, 1.5873015873%, 12.3529411765%);border:1px solid rgba(255, 255, 255, 0.25);border-radius:2px;pointer-events:none;z-index:100;}#graph-3 .flowchartTitleText{text-anchor:middle;font-size:18px;fill:#ccc;}#graph-3 rect.text{fill:none;stroke-width:0;}#graph-3 .icon-shape,#graph-3 .image-shape{background-color:hsl(0, 0%, 34.4117647059%);text-align:center;}#graph-3 .icon-shape p,#graph-3 .image-shape p{background-color:hsl(0, 0%, 34.4117647059%);padding:2px;}#graph-3 .icon-shape .label rect,#graph-3 .image-shape .label rect{opacity:0.5;background-color:hsl(0, 0%, 34.4117647059%);fill:hsl(0, 0%, 34.4117647059%);}#graph-3 .label-icon{display:inline-block;height:1em;overflow:visible;vertical-align:-0.125em;}#graph-3 .node .label-icon path{fill:currentColor;stroke:revert;stroke-width:revert;}#graph-3 :root{--mermaid-font-family:"trebuchet ms",verdana,arial,sans-serif;}</style><g><marker id="graph-3_flowchart-v2-pointEnd" class="marker flowchart-v2" viewBox="0 0 10 10" refX="5" refY="5" markerUnits="userSpaceOnUse" markerWidth="8" markerHeight="8" orient="auto"><path d="M 0 0 L 10 5 L 0 10 z" class="arrowMarkerPath" style="stroke-width: 1; stroke-dasharray: 1, 0;"></path></marker><marker id="graph-3_flowchart-v2-pointStart" class="marker flowchart-v2" viewBox="0 0 10 10" refX="4.5" refY="5" markerUnits="userSpaceOnUse" markerWidth="8" markerHeight="8" orient="auto"><path d="M 0 5 L 10 10 L 10 0 z" class="arrowMarkerPath" style="stroke-width: 1; stroke-dasharray: 1, 0;"></path></marker><marker id="graph-3_flowchart-v2-circleEnd" class="marker flowchart-v2" viewBox="0 0 10 10" refX="11" refY="5" markerUnits="userSpaceOnUse" markerWidth="11" markerHeight="11" orient="auto"><circle cx="5" cy="5" r="5" class="arrowMarkerPath" style="stroke-width: 1; stroke-dasharray: 1, 0;"></circle></marker><marker id="graph-3_flowchart-v2-circleStart" class="marker flowchart-v2" viewBox="0 0 10 10" refX="-1" refY="5" markerUnits="userSpaceOnUse" markerWidth="11" markerHeight="11" orient="auto"><circle cx="5" cy="5" r="5" class="arrowMarkerPath" style="stroke-width: 1; stroke-dasharray: 1, 0;"></circle></marker><marker id="graph-3_flowchart-v2-crossEnd" class="marker cross flowchart-v2" viewBox="0 0 11 11" refX="12" refY="5.2" markerUnits="userSpaceOnUse" markerWidth="11" markerHeight="11" orient="auto"><path d="M 1,1 l 9,9 M 10,1 l -9,9" class="arrowMarkerPath" style="stroke-width: 2; stroke-dasharray: 1, 0;"></path></marker><marker id="graph-3_flowchart-v2-crossStart" class="marker cross flowchart-v2" viewBox="0 0 11 11" refX="-1" refY="5.2" markerUnits="userSpaceOnUse" markerWidth="11" markerHeight="11" orient="auto"><path d="M 1,1 l 9,9 M 10,1 l -9,9" class="arrowMarkerPath" style="stroke-width: 2; stroke-dasharray: 1, 0;"></path></marker><g class="root"><g class="clusters"></g><g class="edgePaths"><path d="M408.48,47.5L400.686,51.583C392.891,55.667,377.303,63.833,369.509,71.417C361.715,79,361.715,86,361.715,89.5L361.715,93" id="L_Start_Q1_0" class="edge-thickness-normal edge-pattern-solid edge-thickness-normal edge-pattern-solid flowchart-link" style=";" data-edge="true" data-et="edge" data-id="L_Start_Q1_0" data-points="W3sieCI6NDA4LjQ3OTc2NjUwMjgwOSwieSI6NDcuNX0seyJ4IjozNjEuNzE0ODQzNzUsInkiOjcyfSx7IngiOjM2MS43MTQ4NDM3NSwieSI6OTd9XQ==" marker-end="url(#graph-3_flowchart-v2-pointEnd)"></path><path d="M301.272,295.963L287.099,312.204C272.926,328.444,244.58,360.925,230.407,393.869C216.234,426.813,216.234,460.219,216.234,476.922L216.234,493.625" id="L_Q1_Flat_0" class="edge-thickness-normal edge-pattern-solid edge-thickness-normal edge-pattern-solid flowchart-link" style=";" data-edge="true" data-et="edge" data-id="L_Q1_Flat_0" data-points="W3sieCI6MzAxLjI3MTk3Njc5MjUxODA1LCJ5IjoyOTUuOTYzMzgzMDQyNTE4MDV9LHsieCI6MjE2LjIzNDM3NSwieSI6MzkzLjQwNjI1fSx7IngiOjIxNi4yMzQzNzUsInkiOjQ5Ny42MjV9XQ==" marker-end="url(#graph-3_flowchart-v2-pointEnd)"></path><path d="M422.158,295.963L436.331,312.204C450.504,328.444,478.849,360.925,493.022,382.666C507.195,404.406,507.195,415.406,507.195,420.906L507.195,426.406" id="L_Q1_Q2_0" class="edge-thickness-normal edge-pattern-solid edge-thickness-normal edge-pattern-solid flowchart-link" style=";" data-edge="true" data-et="edge" data-id="L_Q1_Q2_0" data-points="W3sieCI6NDIyLjE1NzcxMDcwNzQ4MTk1LCJ5IjoyOTUuOTYzMzgzMDQyNTE4MDV9LHsieCI6NTA3LjE5NTMxMjUsInkiOjM5My40MDYyNX0seyJ4Ijo1MDcuMTk1MzEyNSwieSI6NDMwLjQwNjI1fV0=" marker-end="url(#graph-3_flowchart-v2-pointEnd)"></path><path d="M438.361,598.009L413.775,615.648C389.189,633.287,340.016,668.566,315.43,691.705C290.844,714.844,290.844,725.844,290.844,731.344L290.844,736.844" id="L_Q2_Q3_0" class="edge-thickness-normal edge-pattern-solid edge-thickness-normal edge-pattern-solid flowchart-link" style=";" data-edge="true" data-et="edge" data-id="L_Q2_Q3_0" data-points="W3sieCI6NDM4LjM2MDkzNDY3NDY4MDk1LCJ5Ijo1OTguMDA5MzcyMTc0NjgxfSx7IngiOjI5MC44NDM3NSwieSI6NzAzLjg0Mzc1fSx7IngiOjI5MC44NDM3NSwieSI6NzQwLjg0Mzc1fV0=" marker-end="url(#graph-3_flowchart-v2-pointEnd)"></path><path d="M227.604,943.339L212.431,960.045C197.257,976.752,166.91,1010.165,151.736,1047.166C136.563,1084.167,136.563,1124.755,136.563,1145.049L136.563,1165.344" id="L_Q3_Snowflake_0" class="edge-thickness-normal edge-pattern-solid edge-thickness-normal edge-pattern-solid flowchart-link" style=";" data-edge="true" data-et="edge" data-id="L_Q3_Snowflake_0" data-points="W3sieCI6MjI3LjYwNDQ2MzkxOTg4NjIzLCJ5Ijo5NDMuMzM4ODM4OTE5ODg2M30seyJ4IjoxMzYuNTYyNSwieSI6MTA0My41NzgxMjV9LHsieCI6MTM2LjU2MjUsInkiOjExNjkuMzQzNzV9XQ==" marker-end="url(#graph-3_flowchart-v2-pointEnd)"></path><path d="M354.083,943.339L369.257,960.045C384.43,976.752,414.778,1010.165,429.951,1045.166C445.125,1080.167,445.125,1116.755,445.125,1135.049L445.125,1153.344" id="L_Q3_Star_0" class="edge-thickness-normal edge-pattern-solid edge-thickness-normal edge-pattern-solid flowchart-link" style=";" data-edge="true" data-et="edge" data-id="L_Q3_Star_0" data-points="W3sieCI6MzU0LjA4MzAzNjA4MDExMzc0LCJ5Ijo5NDMuMzM4ODM4OTE5ODg2M30seyJ4Ijo0NDUuMTI1LCJ5IjoxMDQzLjU3ODEyNX0seyJ4Ijo0NDUuMTI1LCJ5IjoxMTU3LjM0Mzc1fV0=" marker-end="url(#graph-3_flowchart-v2-pointEnd)"></path><path d="M585.21,588.83L622.406,607.999C659.602,627.168,733.994,665.506,771.191,694.031C808.387,722.557,808.387,741.271,808.387,750.628L808.387,759.984" id="L_Q2_Q4_0" class="edge-thickness-normal edge-pattern-solid edge-thickness-normal edge-pattern-solid flowchart-link" style=";" data-edge="true" data-et="edge" data-id="L_Q2_Q4_0" data-points="W3sieCI6NTg1LjIwOTUwODg3NTg0NDEsInkiOjU4OC44Mjk1NTM2MjQxNTU5fSx7IngiOjgwOC4zODY3MTg3NSwieSI6NzAzLjg0Mzc1fSx7IngiOjgwOC4zODY3MTg3NSwieSI6NzYzLjk4NDM3NX1d" marker-end="url(#graph-3_flowchart-v2-pointEnd)"></path><path d="M776.547,951.598L770.28,966.928C764.013,982.258,751.479,1012.918,745.212,1048.542C738.945,1084.167,738.945,1124.755,738.945,1145.049L738.945,1165.344" id="L_Q4_Relational_0" class="edge-thickness-normal edge-pattern-solid edge-thickness-normal edge-pattern-solid flowchart-link" style=";" data-edge="true" data-et="edge" data-id="L_Q4_Relational_0" data-points="W3sieCI6Nzc2LjU0Njc5NzQwMTY3NCwieSI6OTUxLjU5NzU3ODY1MTY3NH0seyJ4Ijo3MzguOTQ1MzEyNSwieSI6MTA0My41NzgxMjV9LHsieCI6NzM4Ljk0NTMxMjUsInkiOjExNjkuMzQzNzV9XQ==" marker-end="url(#graph-3_flowchart-v2-pointEnd)"></path><path d="M860.167,931.657L876.836,950.311C893.505,968.964,926.842,1006.271,949.551,1037.89C972.261,1069.509,984.341,1095.441,990.382,1108.406L996.422,1121.372" id="L_Q4_Q5_0" class="edge-thickness-normal edge-pattern-solid edge-thickness-normal edge-pattern-solid flowchart-link" style=";" data-edge="true" data-et="edge" data-id="L_Q4_Q5_0" data-points="W3sieCI6ODYwLjE2NzIwOTI3Mzg2MywieSI6OTMxLjY1NzAwOTQ3NjEzN30seyJ4Ijo5NjAuMTc5Njg3NSwieSI6MTA0My41NzgxMjV9LHsieCI6OTk4LjExMTUxMTkxMzE5NjksInkiOjExMjQuOTk3ODYzMDg2ODAzMX1d" marker-end="url(#graph-3_flowchart-v2-pointEnd)"></path><path d="M1042.531,1360.109L1042.531,1366.276C1042.531,1372.443,1042.531,1384.776,1042.531,1396.443C1042.531,1408.109,1042.531,1419.109,1042.531,1424.609L1042.531,1430.109" id="L_Q5_Q6_0" class="edge-thickness-normal edge-pattern-solid edge-thickness-normal edge-pattern-solid flowchart-link" style=";" data-edge="true" data-et="edge" data-id="L_Q5_Q6_0" data-points="W3sieCI6MTA0Mi41MzEyNSwieSI6MTM2MC4xMDkzNzV9LHsieCI6MTA0Mi41MzEyNSwieSI6MTM5Ny4xMDkzNzV9LHsieCI6MTA0Mi41MzEyNSwieSI6MTQzNC4xMDkzNzV9XQ==" marker-end="url(#graph-3_flowchart-v2-pointEnd)"></path><path d="M983.933,1620.792L969.354,1636.725C954.776,1652.658,925.618,1684.525,911.04,1707.958C896.461,1731.391,896.461,1746.391,896.461,1753.891L896.461,1761.391" id="L_Q6_Network_0" class="edge-thickness-normal edge-pattern-solid edge-thickness-normal edge-pattern-solid flowchart-link" style=";" data-edge="true" data-et="edge" data-id="L_Q6_Network_0" data-points="W3sieCI6OTgzLjkzMjkwNjg1NDUzOTksInkiOjE2MjAuNzkyMjgxODU0NTM5OX0seyJ4Ijo4OTYuNDYwOTM3NSwieSI6MTcxNi4zOTA2MjV9LHsieCI6ODk2LjQ2MDkzNzUsInkiOjE3NjUuMzkwNjI1fV0=" marker-end="url(#graph-3_flowchart-v2-pointEnd)"></path><path d="M1101.13,1620.792L1115.708,1636.725C1130.287,1652.658,1159.444,1684.525,1174.023,1705.958C1188.602,1727.391,1188.602,1738.391,1188.602,1743.891L1188.602,1749.391" id="L_Q6_Hierarchical_0" class="edge-thickness-normal edge-pattern-solid edge-thickness-normal edge-pattern-solid flowchart-link" style=";" data-edge="true" data-et="edge" data-id="L_Q6_Hierarchical_0" data-points="W3sieCI6MTEwMS4xMjk1OTMxNDU0NjAxLCJ5IjoxNjIwLjc5MjI4MTg1NDUzOTl9LHsieCI6MTE4OC42MDE1NjI1LCJ5IjoxNzE2LjM5MDYyNX0seyJ4IjoxMTg4LjYwMTU2MjUsInkiOjE3NTMuMzkwNjI1fV0=" marker-end="url(#graph-3_flowchart-v2-pointEnd)"></path><path d="M1053.261,1091.308L1053.923,1083.353C1054.584,1075.398,1055.907,1059.488,1056.569,1023.222C1057.23,986.956,1057.23,930.333,1057.23,873.711C1057.23,817.089,1057.23,760.466,1057.23,706.285C1057.23,652.104,1057.23,600.365,1057.23,548.625C1057.23,496.885,1057.23,445.146,1057.23,391.492C1057.23,337.839,1057.23,282.271,1057.23,228.703C1057.23,175.135,1057.23,123.568,971.43,91.634C885.629,59.7,714.028,47.399,628.227,41.249L542.426,35.099" id="L_Q5_Start_0" class="edge-thickness-normal edge-pattern-solid edge-thickness-normal edge-pattern-solid flowchart-link" style=";" data-edge="true" data-et="edge" data-id="L_Q5_Start_0" data-points="W3sieCI6MTA1My4yNjEzOTQ3ODk4NjAzLCJ5IjoxMDkxLjMwODI2OTc4OTg2MDN9LHsieCI6MTA1Ny4yMzA0Njg3NSwieSI6MTA0My41NzgxMjV9LHsieCI6MTA1Ny4yMzA0Njg3NSwieSI6ODczLjcxMDkzNzV9LHsieCI6MTA1Ny4yMzA0Njg3NSwieSI6NzAzLjg0Mzc1fSx7IngiOjEwNTcuMjMwNDY4NzUsInkiOjU0OC42MjV9LHsieCI6MTA1Ny4yMzA0Njg3NSwieSI6MzkzLjQwNjI1fSx7IngiOjEwNTcuMjMwNDY4NzUsInkiOjIyNi43MDMxMjV9LHsieCI6MTA1Ny4yMzA0Njg3NSwieSI6NzJ9LHsieCI6NTM4LjQzNjU0Mzg1NDI2NTgsInkiOjM0LjgxMjU2Njc4MDgzNTc5NX1d" marker-end="url(#graph-3_flowchart-v2-pointEnd)"></path></g><g class="edgeLabels"><g class="edgeLabel"><g class="label" data-id="L_Start_Q1_0" transform="translate(0, 0)"><foreignObject width="0" height="0"><div xmlns="http://www.w3.org/1999/xhtml" class="labelBkg" style="display: table-cell; white-space: nowrap; line-height: 1.5; max-width: 200px; text-align: center;"><span class="edgeLabel"></span></div></foreignObject></g></g><g class="edgeLabel" transform="translate(216.234375, 393.40625)"><g class="label" data-id="L_Q1_Flat_0" transform="translate(-11.328125, -12)"><foreignObject width="22.65625" height="24"><div xmlns="http://www.w3.org/1999/xhtml" class="labelBkg" style="display: table-cell; white-space: nowrap; line-height: 1.5; max-width: 200px; text-align: center;"><span class="edgeLabel"><p>Yes</p></span></div></foreignObject></g></g><g class="edgeLabel" transform="translate(507.1953125, 393.40625)"><g class="label" data-id="L_Q1_Q2_0" transform="translate(-9.3984375, -12)"><foreignObject width="18.796875" height="24"><div xmlns="http://www.w3.org/1999/xhtml" class="labelBkg" style="display: table-cell; white-space: nowrap; line-height: 1.5; max-width: 200px; text-align: center;"><span class="edgeLabel"><p>No</p></span></div></foreignObject></g></g><g class="edgeLabel" transform="translate(290.84375, 703.84375)"><g class="label" data-id="L_Q2_Q3_0" transform="translate(-11.328125, -12)"><foreignObject width="22.65625" height="24"><div xmlns="http://www.w3.org/1999/xhtml" class="labelBkg" style="display: table-cell; white-space: nowrap; line-height: 1.5; max-width: 200px; text-align: center;"><span class="edgeLabel"><p>Yes</p></span></div></foreignObject></g></g><g class="edgeLabel" transform="translate(136.5625, 1043.578125)"><g class="label" data-id="L_Q3_Snowflake_0" transform="translate(-11.328125, -12)"><foreignObject width="22.65625" height="24"><div xmlns="http://www.w3.org/1999/xhtml" class="labelBkg" style="display: table-cell; white-space: nowrap; line-height: 1.5; max-width: 200px; text-align: center;"><span class="edgeLabel"><p>Yes</p></span></div></foreignObject></g></g><g class="edgeLabel" transform="translate(445.125, 1043.578125)"><g class="label" data-id="L_Q3_Star_0" transform="translate(-9.3984375, -12)"><foreignObject width="18.796875" height="24"><div xmlns="http://www.w3.org/1999/xhtml" class="labelBkg" style="display: table-cell; white-space: nowrap; line-height: 1.5; max-width: 200px; text-align: center;"><span class="edgeLabel"><p>No</p></span></div></foreignObject></g></g><g class="edgeLabel" transform="translate(808.38671875, 703.84375)"><g class="label" data-id="L_Q2_Q4_0" transform="translate(-9.3984375, -12)"><foreignObject width="18.796875" height="24"><div xmlns="http://www.w3.org/1999/xhtml" class="labelBkg" style="display: table-cell; white-space: nowrap; line-height: 1.5; max-width: 200px; text-align: center;"><span class="edgeLabel"><p>No</p></span></div></foreignObject></g></g><g class="edgeLabel" transform="translate(738.9453125, 1043.578125)"><g class="label" data-id="L_Q4_Relational_0" transform="translate(-11.328125, -12)"><foreignObject width="22.65625" height="24"><div xmlns="http://www.w3.org/1999/xhtml" class="labelBkg" style="display: table-cell; white-space: nowrap; line-height: 1.5; max-width: 200px; text-align: center;"><span class="edgeLabel"><p>Yes</p></span></div></foreignObject></g></g><g class="edgeLabel" transform="translate(940.09869, 1021.10606)"><g class="label" data-id="L_Q4_Q5_0" transform="translate(-9.3984375, -12)"><foreignObject width="18.796875" height="24"><div xmlns="http://www.w3.org/1999/xhtml" class="labelBkg" style="display: table-cell; white-space: nowrap; line-height: 1.5; max-width: 200px; text-align: center;"><span class="edgeLabel"><p>No</p></span></div></foreignObject></g></g><g class="edgeLabel" transform="translate(1042.53125, 1397.109375)"><g class="label" data-id="L_Q5_Q6_0" transform="translate(-11.328125, -12)"><foreignObject width="22.65625" height="24"><div xmlns="http://www.w3.org/1999/xhtml" class="labelBkg" style="display: table-cell; white-space: nowrap; line-height: 1.5; max-width: 200px; text-align: center;"><span class="edgeLabel"><p>Yes</p></span></div></foreignObject></g></g><g class="edgeLabel" transform="translate(896.4609375, 1716.390625)"><g class="label" data-id="L_Q6_Network_0" transform="translate(-11.328125, -12)"><foreignObject width="22.65625" height="24"><div xmlns="http://www.w3.org/1999/xhtml" class="labelBkg" style="display: table-cell; white-space: nowrap; line-height: 1.5; max-width: 200px; text-align: center;"><span class="edgeLabel"><p>Yes</p></span></div></foreignObject></g></g><g class="edgeLabel" transform="translate(1188.6015625, 1716.390625)"><g class="label" data-id="L_Q6_Hierarchical_0" transform="translate(-9.3984375, -12)"><foreignObject width="18.796875" height="24"><div xmlns="http://www.w3.org/1999/xhtml" class="labelBkg" style="display: table-cell; white-space: nowrap; line-height: 1.5; max-width: 200px; text-align: center;"><span class="edgeLabel"><p>No</p></span></div></foreignObject></g></g><g class="edgeLabel" transform="translate(1057.23046875, 548.625)"><g class="label" data-id="L_Q5_Start_0" transform="translate(-9.3984375, -12)"><foreignObject width="18.796875" height="24"><div xmlns="http://www.w3.org/1999/xhtml" class="labelBkg" style="display: table-cell; white-space: nowrap; line-height: 1.5; max-width: 200px; text-align: center;"><span class="edgeLabel"><p>No</p></span></div></foreignObject></g></g></g><g class="nodes"><g class="node default" id="flowchart-Start-0" transform="translate(444.06640625, 27.5)"><g class="basic label-container outer-path"><path d="M-75.6015625 -19.5 C-21.23093036156567 -19.5, 33.13970177686866 -19.5, 75.6015625 -19.5 C75.6015625 -19.5, 75.6015625 -19.5, 75.6015625 -19.5 C75.95926363202835 -19.488529220918867, 76.31696476405672 -19.477058441837734, 76.8509317896239 -19.45993515863156 C77.32994872830572 -19.41372497065908, 77.80896566698755 -19.367514782686598, 78.09516715284786 -19.3399052695533 C78.48880096542636 -19.276265607411418, 78.88243477800485 -19.212625945269536, 79.32915575967675 -19.140403561325776 C79.81359231441387 -19.02983407895098, 80.298028869151 -18.919264596576188, 80.54782688623538 -18.862249829261074 C80.94474073059838 -18.744447883697422, 81.34165457496137 -18.626645938133773, 81.7461727514606 -18.50658706670804 C82.1165402110949 -18.37028841792335, 82.48690767072921 -18.23398976913866, 82.9192690951478 -18.074876768247425 C83.27369822465667 -17.917981506380418, 83.62812735416556 -17.761086244513407, 84.06229541279238 -17.568892924097174 C84.4224687417802 -17.38099072906626, 84.782642070768 -17.193088534035343, 85.17055476407678 -16.990714730406097 C85.52240418529097 -16.777421543569346, 85.87425360650516 -16.564128356732596, 86.2394930736057 -16.342718045390892 C86.55053259174927 -16.12575034221766, 86.86157210989286 -15.908782639044427, 87.26471784457871 -15.627565626425154 C87.5519133947416 -15.398534817764807, 87.8391089449045 -15.169504009104461, 88.24201620850187 -14.848196188198123 C88.59415356363043 -14.528394359314222, 88.94629091875899 -14.20859253043032, 89.16737223676799 -14.007812326905688 C89.49682958652487 -13.667620564330257, 89.82628693628173 -13.327428801754825, 90.03698344296865 -13.10986736009568 C90.27087150250075 -12.835129136761672, 90.50475956203285 -12.560390913427664, 90.84727640812658 -12.158051136245305 C91.08012066531433 -11.846061044161935, 91.31296492250208 -11.534070952078565, 91.59492146464063 -11.156274872382312 C91.85946286391118 -10.749868243790612, 92.12400426318172 -10.343461615198912, 92.27684637860425 -10.108655082055241 C92.44249287752724 -9.814532949690602, 92.60813937645023 -9.52041081732596, 92.8902489742735 -9.019496659696287 C93.05492915023096 -8.677534750729315, 93.21960932618843 -8.335572841762342, 93.43260864880834 -7.893275190886684 C93.53940187017632 -7.629493869401298, 93.6461950915443 -7.365712547915911, 93.90169672997033 -6.734618561215508 C94.04432008511299 -6.305059739471495, 94.18694344025565 -5.875500917727481, 94.29558563421489 -5.548287939305138 C94.37545353974302 -5.243717000557125, 94.45532144527117 -4.939146061809112, 94.61265678754556 -4.339158212148133 C94.68356114037105 -3.975079346029488, 94.75446549319655 -3.611000479910843, 94.85160727658177 -3.1121979531509023 C94.9092236362603 -2.665336845121413, 94.96683999593881 -2.2184757370919237, 95.01145520250937 -1.872449005199798 C95.03957386605434 -1.4344781235102548, 95.0676925295993 -0.9965072418207116, 95.09154371591342 -0.6250057626472757 C95.09154371591342 -0.3701987202900526, 95.09154371591342 -0.11539167793282945, 95.09154371591342 0.625005762647271 C95.06653740069864 1.0144993068518502, 95.04153108548385 1.4039928510564292, 95.01145520250937 1.8724490051997846 C94.97286458381261 2.1717502232322556, 94.93427396511585 2.471051441264726, 94.85160727658177 3.1121979531508885 C94.7578869008114 3.593432274923322, 94.66416652504103 4.074666596695755, 94.61265678754556 4.339158212148129 C94.49076460127195 4.803985946817103, 94.36887241499835 5.268813681486077, 94.29558563421489 5.548287939305125 C94.17224536973181 5.919769164325725, 94.04890510524875 6.291250389346326, 93.90169672997033 6.734618561215495 C93.74653502200849 7.117870979728799, 93.59137331404663 7.501123398242103, 93.43260864880834 7.893275190886679 C93.31905371408301 8.129074442530195, 93.20549877935768 8.36487369417371, 92.8902489742735 9.019496659696284 C92.66115349180956 9.42627888724416, 92.43205800934562 9.833061114792038, 92.27684637860425 10.108655082055236 C92.12103294554638 10.3480263569973, 91.96521951248852 10.587397631939364, 91.59492146464065 11.156274872382301 C91.36053267925122 11.470334491546499, 91.12614389386181 11.784394110710695, 90.84727640812659 12.158051136245302 C90.61967804213803 12.425401127649362, 90.39207967614948 12.692751119053424, 90.03698344296866 13.10986736009567 C89.8462783638003 13.30678601151519, 89.65557328463193 13.503704662934709, 89.16737223676799 14.007812326905684 C88.97178117514399 14.185442954016699, 88.77619011351999 14.363073581127715, 88.2420162085019 14.848196188198111 C87.85900346254381 15.153638660702452, 87.47599071658574 15.459081133206793, 87.26471784457871 15.627565626425152 C86.94890293630837 15.847864435027507, 86.63308802803803 16.06816324362986, 86.2394930736057 16.34271804539089 C85.83891565384133 16.58555043130627, 85.43833823407694 16.82838281722165, 85.17055476407678 16.990714730406093 C84.7722899084195 17.198489250501687, 84.37402505276219 17.40626377059728, 84.06229541279238 17.56889292409717 C83.75298330847426 17.70581621726123, 83.44367120415613 17.842739510425293, 82.9192690951478 18.07487676824742 C82.61684549794853 18.18617144758984, 82.31442190074925 18.29746612693226, 81.74617275146062 18.506587066708033 C81.48718534825322 18.583453168527367, 81.22819794504582 18.660319270346704, 80.54782688623541 18.86224982926107 C80.29337826341578 18.920326066987215, 80.03892964059614 18.978402304713356, 79.32915575967677 19.140403561325773 C79.05514133123935 19.184704089101903, 78.78112690280196 19.229004616878033, 78.09516715284788 19.3399052695533 C77.59951373405895 19.387720358753416, 77.10386031527 19.435535447953537, 76.8509317896239 19.45993515863156 C76.56163945187116 19.469212200829915, 76.2723471141184 19.478489243028267, 75.6015625 19.5 C75.6015625 19.5, 75.6015625 19.5, 75.6015625 19.5 C35.48830134484196 19.5, -4.624959810316085 19.5, -75.6015625 19.5 C-76.0901309511121 19.484332560713636, -76.57869940222419 19.46866512142727, -76.8509317896239 19.45993515863156 C-77.19436850390662 19.426804231847782, -77.53780521818935 19.39367330506401, -78.09516715284786 19.3399052695533 C-78.4595828617 19.280989363832113, -78.82399857055215 19.22207345811093, -79.32915575967675 19.140403561325773 C-79.59296397395796 19.080191057925568, -79.85677218823919 19.01997855452536, -80.54782688623538 18.862249829261074 C-80.92268358795496 18.750994327853682, -81.29754028967456 18.63973882644629, -81.74617275146059 18.506587066708043 C-82.04513202125527 18.396567291874405, -82.34409129104996 18.286547517040763, -82.9192690951478 18.074876768247425 C-83.35473284997083 17.88210988156059, -83.79019660479386 17.689342994873762, -84.06229541279238 17.568892924097174 C-84.35637034149507 17.41547422215697, -84.65044527019774 17.262055520216762, -85.17055476407678 16.990714730406097 C-85.4113655339726 16.844733826534092, -85.6521763038684 16.698752922662084, -86.23949307360569 16.3427180453909 C-86.61650600602434 16.07973014436245, -86.99351893844299 15.816742243334005, -87.26471784457871 15.627565626425156 C-87.64628868175218 15.323273037805734, -88.02785951892564 15.018980449186314, -88.24201620850187 14.848196188198125 C-88.60902628323798 14.514887348877247, -88.97603635797408 14.18157850955637, -89.16737223676797 14.007812326905697 C-89.47678226932193 13.688321065257625, -89.7861923018759 13.368829803609556, -90.03698344296865 13.109867360095677 C-90.25236614032379 12.856866588159674, -90.46774883767891 12.603865816223669, -90.84727640812658 12.158051136245307 C-91.12474707957158 11.786265714607188, -91.4022177510166 11.41448029296907, -91.59492146464063 11.156274872382316 C-91.77839886367768 10.874404316881238, -91.96187626271472 10.59253376138016, -92.27684637860425 10.108655082055249 C-92.44192573421999 9.815539970062101, -92.60700508983574 9.522424858068955, -92.8902489742735 9.019496659696289 C-93.02513354456612 8.739405963416207, -93.16001811485873 8.459315267136123, -93.43260864880834 7.893275190886686 C-93.61302813528604 7.447635571113279, -93.79344762176375 7.0019959513398735, -93.90169672997033 6.73461856121551 C-93.9903347726256 6.467654899292052, -94.07897281528086 6.200691237368594, -94.29558563421489 5.5482879393051325 C-94.36549896769539 5.281678098113602, -94.43541230117587 5.015068256922071, -94.61265678754556 4.339158212148136 C-94.66115090027074 4.090151192538717, -94.7096450129959 3.8411441729292988, -94.85160727658177 3.112197953150904 C-94.89817827187777 2.75100251011835, -94.94474926717378 2.3898070670857963, -95.01145520250937 1.872449005199809 C-95.03046835410247 1.5763038219976284, -95.04948150569555 1.2801586387954478, -95.09154371591342 0.6250057626472781 C-95.09154371591342 0.3172523479016799, -95.09154371591342 0.009498933156081635, -95.09154371591342 -0.6250057626472687 C-95.06246181226605 -1.0779798864450876, -95.03337990861868 -1.5309540102429064, -95.01145520250937 -1.8724490051997822 C-94.9602688895595 -2.2694399405581818, -94.90908257660963 -2.6664308759165816, -94.85160727658177 -3.112197953150895 C-94.75764570863136 -3.594670745791891, -94.66368414068093 -4.077143538432887, -94.61265678754556 -4.339158212148126 C-94.5278357605348 -4.6626175498058124, -94.44301473352404 -4.986076887463498, -94.29558563421489 -5.548287939305123 C-94.16850724624331 -5.931027796684011, -94.04142885827173 -6.313767654062898, -93.90169672997033 -6.734618561215485 C-93.72029608559043 -7.182681659976687, -93.53889544121054 -7.63074475873789, -93.43260864880834 -7.893275190886676 C-93.25981673822753 -8.252081290362366, -93.0870248276467 -8.610887389838053, -92.8902489742735 -9.019496659696282 C-92.74932186165832 -9.269727018562133, -92.60839474904313 -9.519957377427984, -92.27684637860425 -10.108655082055243 C-92.09050473901404 -10.39492588020226, -91.90416309942383 -10.681196678349275, -91.59492146464063 -11.156274872382308 C-91.38711039038819 -11.434722779902255, -91.17929931613574 -11.713170687422203, -90.84727640812659 -12.158051136245302 C-90.5425655159444 -12.515981888743443, -90.23785462376222 -12.873912641241585, -90.03698344296866 -13.10986736009567 C-89.86071817061698 -13.291875725446776, -89.68445289826529 -13.473884090797881, -89.16737223676799 -14.007812326905677 C-88.94452091585367 -14.210200000237213, -88.72166959493937 -14.41258767356875, -88.2420162085019 -14.848196188198107 C-87.866879578646 -15.147357667703204, -87.49174294879012 -15.446519147208301, -87.26471784457871 -15.627565626425149 C-87.02689098796554 -15.793463346239808, -86.78906413135238 -15.959361066054466, -86.23949307360571 -16.342718045390885 C-85.89210428248309 -16.55330717205256, -85.54471549136045 -16.763896298714236, -85.17055476407678 -16.99071473040609 C-84.94757110505036 -17.10704516249233, -84.72458744602393 -17.223375594578567, -84.0622954127924 -17.56889292409717 C-83.62184688001277 -17.7638664241172, -83.18139834723314 -17.958839924137234, -82.91926909514781 -18.07487676824742 C-82.65744477539963 -18.171230538192233, -82.39562045565144 -18.267584308137046, -81.74617275146062 -18.506587066708033 C-81.446493682263 -18.595530241398354, -81.14681461306537 -18.684473416088675, -80.54782688623541 -18.862249829261067 C-80.26494652225229 -18.926815426373324, -79.98206615826918 -18.991381023485584, -79.32915575967677 -19.140403561325773 C-78.95695800323246 -19.20057760815098, -78.58476024678815 -19.260751654976186, -78.09516715284788 -19.3399052695533 C-77.83161156976676 -19.36533015968117, -77.56805598668564 -19.390755049809044, -76.8509317896239 -19.45993515863156 C-76.56388019662823 -19.4691403445069, -76.27682860363258 -19.47834553038224, -75.6015625 -19.5 C-75.6015625 -19.5, -75.6015625 -19.5, -75.6015625 -19.5" stroke="none" stroke-width="0" fill="#1f2020" style=""></path><path d="M-75.6015625 -19.5 C-31.624142004020435 -19.5, 12.35327849195913 -19.5, 75.6015625 -19.5 M-75.6015625 -19.5 C-32.60181773259534 -19.5, 10.397927034809314 -19.5, 75.6015625 -19.5 M75.6015625 -19.5 C75.6015625 -19.5, 75.6015625 -19.5, 75.6015625 -19.5 M75.6015625 -19.5 C75.6015625 -19.5, 75.6015625 -19.5, 75.6015625 -19.5 M75.6015625 -19.5 C75.92781826264988 -19.489537612710137, 76.25407402529976 -19.479075225420274, 76.8509317896239 -19.45993515863156 M75.6015625 -19.5 C76.05386681789481 -19.48549548088206, 76.50617113578963 -19.47099096176412, 76.8509317896239 -19.45993515863156 M76.8509317896239 -19.45993515863156 C77.32746565823675 -19.413964509442305, 77.80399952684958 -19.36799386025305, 78.09516715284786 -19.3399052695533 M76.8509317896239 -19.45993515863156 C77.26353852836779 -19.42013148277714, 77.67614526711166 -19.380327806922722, 78.09516715284786 -19.3399052695533 M78.09516715284786 -19.3399052695533 C78.38886508296358 -19.292422465873656, 78.68256301307927 -19.244939662194014, 79.32915575967675 -19.140403561325776 M78.09516715284786 -19.3399052695533 C78.55151665716923 -19.26612622073788, 79.00786616149061 -19.192347171922464, 79.32915575967675 -19.140403561325776 M79.32915575967675 -19.140403561325776 C79.7849709094823 -19.03636672785449, 80.24078605928786 -18.932329894383205, 80.54782688623538 -18.862249829261074 M79.32915575967675 -19.140403561325776 C79.63616931411845 -19.07032972097513, 79.94318286856016 -19.00025588062449, 80.54782688623538 -18.862249829261074 M80.54782688623538 -18.862249829261074 C80.971964321244 -18.736368064893345, 81.39610175625263 -18.610486300525615, 81.7461727514606 -18.50658706670804 M80.54782688623538 -18.862249829261074 C80.8531774691193 -18.771623379079045, 81.15852805200322 -18.680996928897017, 81.7461727514606 -18.50658706670804 M81.7461727514606 -18.50658706670804 C82.15977967371133 -18.3543758959793, 82.57338659596203 -18.202164725250555, 82.9192690951478 -18.074876768247425 M81.7461727514606 -18.50658706670804 C82.00506828711667 -18.411311116382514, 82.26396382277272 -18.316035166056984, 82.9192690951478 -18.074876768247425 M82.9192690951478 -18.074876768247425 C83.2535157774934 -17.926915677048573, 83.58776245983901 -17.778954585849718, 84.06229541279238 -17.568892924097174 M82.9192690951478 -18.074876768247425 C83.29382407971073 -17.909072387360265, 83.66837906427367 -17.743268006473105, 84.06229541279238 -17.568892924097174 M84.06229541279238 -17.568892924097174 C84.36454501420279 -17.411209500641476, 84.6667946156132 -17.253526077185775, 85.17055476407678 -16.990714730406097 M84.06229541279238 -17.568892924097174 C84.29094402772117 -17.449607088145253, 84.51959264264995 -17.330321252193336, 85.17055476407678 -16.990714730406097 M85.17055476407678 -16.990714730406097 C85.40616172546281 -16.847888405833693, 85.64176868684885 -16.70506208126129, 86.2394930736057 -16.342718045390892 M85.17055476407678 -16.990714730406097 C85.5979210168255 -16.73164279650696, 86.02528726957419 -16.47257086260782, 86.2394930736057 -16.342718045390892 M86.2394930736057 -16.342718045390892 C86.52853447535922 -16.141095275928258, 86.81757587711273 -15.939472506465624, 87.26471784457871 -15.627565626425154 M86.2394930736057 -16.342718045390892 C86.62733401972885 -16.072176990739344, 87.015174965852 -15.801635936087797, 87.26471784457871 -15.627565626425154 M87.26471784457871 -15.627565626425154 C87.50997484741244 -15.431979693228197, 87.75523185024618 -15.236393760031238, 88.24201620850187 -14.848196188198123 M87.26471784457871 -15.627565626425154 C87.65547285157231 -15.315948906775201, 88.0462278585659 -15.004332187125248, 88.24201620850187 -14.848196188198123 M88.24201620850187 -14.848196188198123 C88.53110413653935 -14.585654180801916, 88.82019206457683 -14.323112173405708, 89.16737223676799 -14.007812326905688 M88.24201620850187 -14.848196188198123 C88.58363946747886 -14.537942983251332, 88.92526272645587 -14.227689778304542, 89.16737223676799 -14.007812326905688 M89.16737223676799 -14.007812326905688 C89.35059149877831 -13.818623396298866, 89.53381076078863 -13.629434465692047, 90.03698344296865 -13.10986736009568 M89.16737223676799 -14.007812326905688 C89.49842057774747 -13.665977735270111, 89.82946891872695 -13.324143143634535, 90.03698344296865 -13.10986736009568 M90.03698344296865 -13.10986736009568 C90.34127968037424 -12.752423684692651, 90.64557591777984 -12.394980009289622, 90.84727640812658 -12.158051136245305 M90.03698344296865 -13.10986736009568 C90.34953022561608 -12.74273212478226, 90.66207700826352 -12.375596889468836, 90.84727640812658 -12.158051136245305 M90.84727640812658 -12.158051136245305 C91.0741088154344 -11.85411637531024, 91.30094122274224 -11.550181614375171, 91.59492146464063 -11.156274872382312 M90.84727640812658 -12.158051136245305 C91.03713530287591 -11.903657513782328, 91.22699419762525 -11.64926389131935, 91.59492146464063 -11.156274872382312 M91.59492146464063 -11.156274872382312 C91.84922265568224 -10.765599953511185, 92.10352384672386 -10.374925034640055, 92.27684637860425 -10.108655082055241 M91.59492146464063 -11.156274872382312 C91.76642063201064 -10.89280609732739, 91.93791979938064 -10.629337322272471, 92.27684637860425 -10.108655082055241 M92.27684637860425 -10.108655082055241 C92.40730856384222 -9.877006261436454, 92.53777074908018 -9.645357440817667, 92.8902489742735 -9.019496659696287 M92.27684637860425 -10.108655082055241 C92.43479367428296 -9.828203664679695, 92.59274096996165 -9.547752247304146, 92.8902489742735 -9.019496659696287 M92.8902489742735 -9.019496659696287 C93.02990126857199 -8.729505682505076, 93.16955356287046 -8.439514705313865, 93.43260864880834 -7.893275190886684 M92.8902489742735 -9.019496659696287 C93.10297290106482 -8.57777087415125, 93.31569682785612 -8.136045088606213, 93.43260864880834 -7.893275190886684 M93.43260864880834 -7.893275190886684 C93.59577021167365 -7.490262976095162, 93.75893177453895 -7.087250761303638, 93.90169672997033 -6.734618561215508 M93.43260864880834 -7.893275190886684 C93.5574325489001 -7.584957744354129, 93.68225644899184 -7.276640297821573, 93.90169672997033 -6.734618561215508 M93.90169672997033 -6.734618561215508 C94.0009598720875 -6.4356537925924675, 94.1002230142047 -6.136689023969426, 94.29558563421489 -5.548287939305138 M93.90169672997033 -6.734618561215508 C94.037825125676 -6.324621522464439, 94.17395352138168 -5.914624483713371, 94.29558563421489 -5.548287939305138 M94.29558563421489 -5.548287939305138 C94.40806834506833 -5.1193426125057195, 94.52055105592176 -4.690397285706301, 94.61265678754556 -4.339158212148133 M94.29558563421489 -5.548287939305138 C94.38498272567479 -5.207378084624008, 94.47437981713469 -4.866468229942877, 94.61265678754556 -4.339158212148133 M94.61265678754556 -4.339158212148133 C94.68258895055678 -3.980071335253438, 94.75252111356798 -3.6209844583587425, 94.85160727658177 -3.1121979531509023 M94.61265678754556 -4.339158212148133 C94.69291822246916 -3.9270327070757434, 94.77317965739275 -3.514907202003353, 94.85160727658177 -3.1121979531509023 M94.85160727658177 -3.1121979531509023 C94.88509723622448 -2.8524564395026024, 94.91858719586719 -2.592714925854303, 95.01145520250937 -1.872449005199798 M94.85160727658177 -3.1121979531509023 C94.8973490750532 -2.757433596946298, 94.94309087352462 -2.4026692407416936, 95.01145520250937 -1.872449005199798 M95.01145520250937 -1.872449005199798 C95.02907115635578 -1.5980663046997914, 95.04668711020221 -1.3236836041997846, 95.09154371591342 -0.6250057626472757 M95.01145520250937 -1.872449005199798 C95.031970647803 -1.5529043849819215, 95.05248609309666 -1.233359764764045, 95.09154371591342 -0.6250057626472757 M95.09154371591342 -0.6250057626472757 C95.09154371591342 -0.24437871201330097, 95.09154371591342 0.13624833862067376, 95.09154371591342 0.625005762647271 M95.09154371591342 -0.6250057626472757 C95.09154371591342 -0.205634815320348, 95.09154371591342 0.2137361320065797, 95.09154371591342 0.625005762647271 M95.09154371591342 0.625005762647271 C95.06140449676728 1.094448428788079, 95.03126527762116 1.563891094928887, 95.01145520250937 1.8724490051997846 M95.09154371591342 0.625005762647271 C95.06587059522141 1.0248853403952252, 95.0401974745294 1.4247649181431794, 95.01145520250937 1.8724490051997846 M95.01145520250937 1.8724490051997846 C94.95001016809755 2.3490045584034167, 94.88856513368572 2.8255601116070492, 94.85160727658177 3.1121979531508885 M95.01145520250937 1.8724490051997846 C94.95674714631669 2.296753885702557, 94.902039090124 2.7210587662053296, 94.85160727658177 3.1121979531508885 M94.85160727658177 3.1121979531508885 C94.79155818718272 3.4205373358355247, 94.73150909778366 3.728876718520161, 94.61265678754556 4.339158212148129 M94.85160727658177 3.1121979531508885 C94.76251592987428 3.5696631890310795, 94.67342458316679 4.02712842491127, 94.61265678754556 4.339158212148129 M94.61265678754556 4.339158212148129 C94.51353114256467 4.717167257786558, 94.41440549758379 5.095176303424988, 94.29558563421489 5.548287939305125 M94.61265678754556 4.339158212148129 C94.48921566902409 4.809892696789707, 94.3657745505026 5.280627181431286, 94.29558563421489 5.548287939305125 M94.29558563421489 5.548287939305125 C94.19577139115827 5.848912536151712, 94.09595714810166 6.149537132998297, 93.90169672997033 6.734618561215495 M94.29558563421489 5.548287939305125 C94.18717524111776 5.874802770463244, 94.07876484802063 6.201317601621362, 93.90169672997033 6.734618561215495 M93.90169672997033 6.734618561215495 C93.71805079264848 7.1882275769530946, 93.53440485532664 7.641836592690695, 93.43260864880834 7.893275190886679 M93.90169672997033 6.734618561215495 C93.74136938625833 7.130630199902435, 93.58104204254634 7.5266418385893745, 93.43260864880834 7.893275190886679 M93.43260864880834 7.893275190886679 C93.21904384990616 8.336747065361736, 93.00547905100397 8.780218939836795, 92.8902489742735 9.019496659696284 M93.43260864880834 7.893275190886679 C93.24974792355682 8.2729893994642, 93.0668871983053 8.65270360804172, 92.8902489742735 9.019496659696284 M92.8902489742735 9.019496659696284 C92.70020849286765 9.356932778117844, 92.51016801146179 9.694368896539403, 92.27684637860425 10.108655082055236 M92.8902489742735 9.019496659696284 C92.75061250666496 9.267435347660843, 92.61097603905642 9.515374035625403, 92.27684637860425 10.108655082055236 M92.27684637860425 10.108655082055236 C92.01746924524366 10.507128011409689, 91.75809211188306 10.905600940764144, 91.59492146464065 11.156274872382301 M92.27684637860425 10.108655082055236 C92.11527495869578 10.356872171035794, 91.9537035387873 10.605089260016355, 91.59492146464065 11.156274872382301 M91.59492146464065 11.156274872382301 C91.41360905244181 11.399216986828192, 91.23229664024296 11.64215910127408, 90.84727640812659 12.158051136245302 M91.59492146464065 11.156274872382301 C91.30020331823471 11.551170339190772, 91.00548517182878 11.946065805999243, 90.84727640812659 12.158051136245302 M90.84727640812659 12.158051136245302 C90.58320320715639 12.468246544295713, 90.31913000618617 12.778441952346125, 90.03698344296866 13.10986736009567 M90.84727640812659 12.158051136245302 C90.6325485071366 12.410282747111836, 90.41782060614662 12.662514357978372, 90.03698344296866 13.10986736009567 M90.03698344296866 13.10986736009567 C89.70336961205051 13.454351030723567, 89.36975578113235 13.798834701351463, 89.16737223676799 14.007812326905684 M90.03698344296866 13.10986736009567 C89.82064072671707 13.333258976692766, 89.60429801046548 13.556650593289863, 89.16737223676799 14.007812326905684 M89.16737223676799 14.007812326905684 C88.94376568037487 14.210885885116648, 88.72015912398173 14.41395944332761, 88.2420162085019 14.848196188198111 M89.16737223676799 14.007812326905684 C88.89027292757311 14.259466587870515, 88.61317361837823 14.511120848835347, 88.2420162085019 14.848196188198111 M88.2420162085019 14.848196188198111 C88.00436814955265 15.037714191129686, 87.76672009060341 15.227232194061258, 87.26471784457871 15.627565626425152 M88.2420162085019 14.848196188198111 C88.0210080935334 15.02444427861255, 87.7999999785649 15.200692369026992, 87.26471784457871 15.627565626425152 M87.26471784457871 15.627565626425152 C86.91483073092596 15.871631730540285, 86.56494361727319 16.115697834655418, 86.2394930736057 16.34271804539089 M87.26471784457871 15.627565626425152 C86.87394669404941 15.900150664823926, 86.48317554352012 16.1727357032227, 86.2394930736057 16.34271804539089 M86.2394930736057 16.34271804539089 C85.81825049917464 16.598077769507142, 85.39700792474358 16.853437493623396, 85.17055476407678 16.990714730406093 M86.2394930736057 16.34271804539089 C85.87346347642796 16.56460733822871, 85.50743387925021 16.786496631066537, 85.17055476407678 16.990714730406093 M85.17055476407678 16.990714730406093 C84.81109249317353 17.178245966889747, 84.45163022227028 17.3657772033734, 84.06229541279238 17.56889292409717 M85.17055476407678 16.990714730406093 C84.81889346457457 17.174176205106587, 84.46723216507235 17.35763767980708, 84.06229541279238 17.56889292409717 M84.06229541279238 17.56889292409717 C83.62141774405636 17.764056389875236, 83.18054007532032 17.9592198556533, 82.9192690951478 18.07487676824742 M84.06229541279238 17.56889292409717 C83.7130678649775 17.723485600047685, 83.36384031716261 17.8780782759982, 82.9192690951478 18.07487676824742 M82.9192690951478 18.07487676824742 C82.57994358050388 18.199751694327055, 82.24061806585996 18.32462662040669, 81.74617275146062 18.506587066708033 M82.9192690951478 18.07487676824742 C82.6698023470485 18.166682837593303, 82.42033559894921 18.258488906939185, 81.74617275146062 18.506587066708033 M81.74617275146062 18.506587066708033 C81.47653859587 18.586613068748765, 81.20690444027939 18.666639070789497, 80.54782688623541 18.86224982926107 M81.74617275146062 18.506587066708033 C81.27225474411084 18.647243443643067, 80.79833673676104 18.7878998205781, 80.54782688623541 18.86224982926107 M80.54782688623541 18.86224982926107 C80.29151997155137 18.920750209978777, 80.0352130568673 18.979250590696484, 79.32915575967677 19.140403561325773 M80.54782688623541 18.86224982926107 C80.14136833530188 18.955021341121725, 79.73490978436834 19.047792852982383, 79.32915575967677 19.140403561325773 M79.32915575967677 19.140403561325773 C78.90813990618425 19.208470139491737, 78.48712405269173 19.276536717657702, 78.09516715284788 19.3399052695533 M79.32915575967677 19.140403561325773 C79.00505848138647 19.192801095867818, 78.68096120309617 19.24519863040986, 78.09516715284788 19.3399052695533 M78.09516715284788 19.3399052695533 C77.79339029126642 19.369017320450286, 77.49161342968497 19.398129371347274, 76.8509317896239 19.45993515863156 M78.09516715284788 19.3399052695533 C77.60046444100645 19.387628645197584, 77.10576172916501 19.43535202084187, 76.8509317896239 19.45993515863156 M76.8509317896239 19.45993515863156 C76.49686988190064 19.471289234872547, 76.14280797417737 19.482643311113538, 75.6015625 19.5 M76.8509317896239 19.45993515863156 C76.57839023031154 19.468675035968744, 76.30584867099918 19.477414913305925, 75.6015625 19.5 M75.6015625 19.5 C75.6015625 19.5, 75.6015625 19.5, 75.6015625 19.5 M75.6015625 19.5 C75.6015625 19.5, 75.6015625 19.5, 75.6015625 19.5 M75.6015625 19.5 C27.793189338829364 19.5, -20.01518382234127 19.5, -75.6015625 19.5 M75.6015625 19.5 C42.77089236519796 19.5, 9.940222230395918 19.5, -75.6015625 19.5 M-75.6015625 19.5 C-75.98553974452872 19.48768659713433, -76.36951698905744 19.475373194268663, -76.8509317896239 19.45993515863156 M-75.6015625 19.5 C-76.0818687462991 19.48459751354058, -76.5621749925982 19.469195027081163, -76.8509317896239 19.45993515863156 M-76.8509317896239 19.45993515863156 C-77.14602076009156 19.431468280546955, -77.4411097305592 19.403001402462348, -78.09516715284786 19.3399052695533 M-76.8509317896239 19.45993515863156 C-77.10677857286015 19.435253927153532, -77.3626253560964 19.410572695675505, -78.09516715284786 19.3399052695533 M-78.09516715284786 19.3399052695533 C-78.4166804781705 19.28792548848821, -78.73819380349316 19.23594570742312, -79.32915575967675 19.140403561325773 M-78.09516715284786 19.3399052695533 C-78.49511574391394 19.275244682997382, -78.89506433498002 19.210584096441465, -79.32915575967675 19.140403561325773 M-79.32915575967675 19.140403561325773 C-79.74607202920423 19.04524514343904, -80.1629882987317 18.95008672555231, -80.54782688623538 18.862249829261074 M-79.32915575967675 19.140403561325773 C-79.63784595323116 19.069947039038745, -79.94653614678558 18.99949051675172, -80.54782688623538 18.862249829261074 M-80.54782688623538 18.862249829261074 C-80.87710419688466 18.764522051872245, -81.20638150753393 18.66679427448342, -81.74617275146059 18.506587066708043 M-80.54782688623538 18.862249829261074 C-80.82304252348378 18.780567272762113, -81.09825816073216 18.69888471626315, -81.74617275146059 18.506587066708043 M-81.74617275146059 18.506587066708043 C-82.03061609754015 18.4019092859853, -82.31505944361969 18.29723150526256, -82.9192690951478 18.074876768247425 M-81.74617275146059 18.506587066708043 C-82.11914139439004 18.369331158425663, -82.49211003731949 18.232075250143286, -82.9192690951478 18.074876768247425 M-82.9192690951478 18.074876768247425 C-83.16740411533927 17.96503475547251, -83.41553913553075 17.855192742697593, -84.06229541279238 17.568892924097174 M-82.9192690951478 18.074876768247425 C-83.196162327783 17.95230434790573, -83.4730555604182 17.82973192756404, -84.06229541279238 17.568892924097174 M-84.06229541279238 17.568892924097174 C-84.28987827531286 17.45016309049402, -84.51746113783334 17.331433256890868, -85.17055476407678 16.990714730406097 M-84.06229541279238 17.568892924097174 C-84.33255011978602 17.42790121656499, -84.60280482677967 17.28690950903281, -85.17055476407678 16.990714730406097 M-85.17055476407678 16.990714730406097 C-85.41804677679266 16.84068361787322, -85.66553878950855 16.69065250534035, -86.23949307360569 16.3427180453909 M-85.17055476407678 16.990714730406097 C-85.46847328104315 16.81011477465755, -85.76639179800951 16.629514818909, -86.23949307360569 16.3427180453909 M-86.23949307360569 16.3427180453909 C-86.51767912518746 16.14866749828754, -86.79586517676923 15.954616951184184, -87.26471784457871 15.627565626425156 M-86.23949307360569 16.3427180453909 C-86.62233487598834 16.075664177003276, -87.005176678371 15.808610308615654, -87.26471784457871 15.627565626425156 M-87.26471784457871 15.627565626425156 C-87.5988808015065 15.361079560724987, -87.9330437584343 15.094593495024817, -88.24201620850187 14.848196188198125 M-87.26471784457871 15.627565626425156 C-87.62316203927946 15.341715919751927, -87.9816062339802 15.055866213078698, -88.24201620850187 14.848196188198125 M-88.24201620850187 14.848196188198125 C-88.45587395818492 14.65397623830196, -88.66973170786798 14.459756288405792, -89.16737223676797 14.007812326905697 M-88.24201620850187 14.848196188198125 C-88.53974110928979 14.577810310671733, -88.83746601007773 14.307424433145341, -89.16737223676797 14.007812326905697 M-89.16737223676797 14.007812326905697 C-89.4673971339321 13.698011988081578, -89.76742203109622 13.38821164925746, -90.03698344296865 13.109867360095677 M-89.16737223676797 14.007812326905697 C-89.48395384142347 13.680915828265768, -89.80053544607898 13.354019329625837, -90.03698344296865 13.109867360095677 M-90.03698344296865 13.109867360095677 C-90.31497944185125 12.783317441387716, -90.59297544073387 12.456767522679755, -90.84727640812658 12.158051136245307 M-90.03698344296865 13.109867360095677 C-90.29217335022851 12.810106774311171, -90.54736325748837 12.510346188526665, -90.84727640812658 12.158051136245307 M-90.84727640812658 12.158051136245307 C-91.04438083452806 11.89394916144997, -91.24148526092954 11.629847186654636, -91.59492146464063 11.156274872382316 M-90.84727640812658 12.158051136245307 C-91.02643042359946 11.91800107677821, -91.20558443907235 11.677951017311113, -91.59492146464063 11.156274872382316 M-91.59492146464063 11.156274872382316 C-91.80339507422114 10.83600342506412, -92.01186868380165 10.515731977745926, -92.27684637860425 10.108655082055249 M-91.59492146464063 11.156274872382316 C-91.77088437131414 10.885948595075373, -91.94684727798764 10.61562231776843, -92.27684637860425 10.108655082055249 M-92.27684637860425 10.108655082055249 C-92.50058636736007 9.711382075888665, -92.72432635611591 9.314109069722079, -92.8902489742735 9.019496659696289 M-92.27684637860425 10.108655082055249 C-92.43150562536786 9.834041928479492, -92.58616487213149 9.559428774903735, -92.8902489742735 9.019496659696289 M-92.8902489742735 9.019496659696289 C-93.03940757944731 8.709765624569997, -93.18856618462111 8.400034589443704, -93.43260864880834 7.893275190886686 M-92.8902489742735 9.019496659696289 C-93.04831525577033 8.691268644091505, -93.20638153726715 8.36304062848672, -93.43260864880834 7.893275190886686 M-93.43260864880834 7.893275190886686 C-93.55256854170155 7.596971936173723, -93.67252843459475 7.300668681460761, -93.90169672997033 6.73461856121551 M-93.43260864880834 7.893275190886686 C-93.60031857196199 7.4790284382463685, -93.76802849511566 7.06478168560605, -93.90169672997033 6.73461856121551 M-93.90169672997033 6.73461856121551 C-94.00933736944746 6.410422105317233, -94.1169780089246 6.086225649418956, -94.29558563421489 5.5482879393051325 M-93.90169672997033 6.73461856121551 C-93.99275293206547 6.460371788340521, -94.08380913416063 6.1861250154655325, -94.29558563421489 5.5482879393051325 M-94.29558563421489 5.5482879393051325 C-94.38025289385446 5.225414983276997, -94.46492015349403 4.902542027248862, -94.61265678754556 4.339158212148136 M-94.29558563421489 5.5482879393051325 C-94.3721597303621 5.2562777232726, -94.44873382650931 4.964267507240066, -94.61265678754556 4.339158212148136 M-94.61265678754556 4.339158212148136 C-94.67792644526848 4.004012314487961, -94.7431961029914 3.668866416827787, -94.85160727658177 3.112197953150904 M-94.61265678754556 4.339158212148136 C-94.7062544383814 3.8585540569766454, -94.79985208921723 3.377949901805155, -94.85160727658177 3.112197953150904 M-94.85160727658177 3.112197953150904 C-94.88902551445287 2.8219894892895256, -94.92644375232396 2.531781025428147, -95.01145520250937 1.872449005199809 M-94.85160727658177 3.112197953150904 C-94.90801236967235 2.6747311895858594, -94.96441746276294 2.2372644260208148, -95.01145520250937 1.872449005199809 M-95.01145520250937 1.872449005199809 C-95.03883541305888 1.445980124982969, -95.0662156236084 1.0195112447661285, -95.09154371591342 0.6250057626472781 M-95.01145520250937 1.872449005199809 C-95.03079721199656 1.5711815948478205, -95.05013922148375 1.2699141844958322, -95.09154371591342 0.6250057626472781 M-95.09154371591342 0.6250057626472781 C-95.09154371591342 0.1531951083981345, -95.09154371591342 -0.31861554585100915, -95.09154371591342 -0.6250057626472687 M-95.09154371591342 0.6250057626472781 C-95.09154371591342 0.34674742206489534, -95.09154371591342 0.06848908148251254, -95.09154371591342 -0.6250057626472687 M-95.09154371591342 -0.6250057626472687 C-95.07088128216427 -0.9468398467065422, -95.05021884841513 -1.2686739307658157, -95.01145520250937 -1.8724490051997822 M-95.09154371591342 -0.6250057626472687 C-95.06159316149112 -1.091509823427006, -95.03164260706882 -1.5580138842067435, -95.01145520250937 -1.8724490051997822 M-95.01145520250937 -1.8724490051997822 C-94.97458438755439 -2.1584117650246677, -94.9377135725994 -2.4443745248495534, -94.85160727658177 -3.112197953150895 M-95.01145520250937 -1.8724490051997822 C-94.94971730525624 -2.3512759447682594, -94.88797940800312 -2.8301028843367364, -94.85160727658177 -3.112197953150895 M-94.85160727658177 -3.112197953150895 C-94.78852705010512 -3.436101584097959, -94.72544682362846 -3.760005215045023, -94.61265678754556 -4.339158212148126 M-94.85160727658177 -3.112197953150895 C-94.7612291495669 -3.57627053394838, -94.67085102255203 -4.040343114745864, -94.61265678754556 -4.339158212148126 M-94.61265678754556 -4.339158212148126 C-94.51375789853205 -4.716302539006296, -94.41485900951854 -5.0934468658644665, -94.29558563421489 -5.548287939305123 M-94.61265678754556 -4.339158212148126 C-94.49453894907697 -4.789592722823898, -94.37642111060838 -5.240027233499671, -94.29558563421489 -5.548287939305123 M-94.29558563421489 -5.548287939305123 C-94.1725184018677 -5.9189468350342, -94.04945116952051 -6.2896057307632764, -93.90169672997033 -6.734618561215485 M-94.29558563421489 -5.548287939305123 C-94.1392284264789 -6.019210936868025, -93.98287121874289 -6.4901339344309275, -93.90169672997033 -6.734618561215485 M-93.90169672997033 -6.734618561215485 C-93.77673427240445 -7.04327824738795, -93.65177181483858 -7.351937933560415, -93.43260864880834 -7.893275190886676 M-93.90169672997033 -6.734618561215485 C-93.79366515731549 -7.001458634321319, -93.68563358466064 -7.268298707427154, -93.43260864880834 -7.893275190886676 M-93.43260864880834 -7.893275190886676 C-93.28761512547267 -8.194357344457613, -93.142621602137 -8.49543949802855, -92.8902489742735 -9.019496659696282 M-93.43260864880834 -7.893275190886676 C-93.31278318987641 -8.142095320212936, -93.19295773094447 -8.390915449539198, -92.8902489742735 -9.019496659696282 M-92.8902489742735 -9.019496659696282 C-92.76669751015436 -9.238874795182213, -92.64314604603521 -9.458252930668143, -92.27684637860425 -10.108655082055243 M-92.8902489742735 -9.019496659696282 C-92.72345554950225 -9.315655275043358, -92.55666212473099 -9.611813890390435, -92.27684637860425 -10.108655082055243 M-92.27684637860425 -10.108655082055243 C-92.13544242891119 -10.325889521060882, -91.99403847921815 -10.54312396006652, -91.59492146464063 -11.156274872382308 M-92.27684637860425 -10.108655082055243 C-92.13134486418643 -10.332184480828309, -91.98584334976861 -10.555713879601372, -91.59492146464063 -11.156274872382308 M-91.59492146464063 -11.156274872382308 C-91.32300508770713 -11.520618045381655, -91.05108871077364 -11.884961218381, -90.84727640812659 -12.158051136245302 M-91.59492146464063 -11.156274872382308 C-91.37311942757034 -11.45346939547524, -91.15131739050005 -11.750663918568172, -90.84727640812659 -12.158051136245302 M-90.84727640812659 -12.158051136245302 C-90.65462069165844 -12.384355503229608, -90.46196497519028 -12.610659870213915, -90.03698344296866 -13.10986736009567 M-90.84727640812659 -12.158051136245302 C-90.55534997706611 -12.500964533253429, -90.26342354600564 -12.843877930261556, -90.03698344296866 -13.10986736009567 M-90.03698344296866 -13.10986736009567 C-89.73601715352233 -13.420639763740907, -89.435050864076 -13.731412167386143, -89.16737223676799 -14.007812326905677 M-90.03698344296866 -13.10986736009567 C-89.69581809530656 -13.46214859175275, -89.35465274764445 -13.814429823409831, -89.16737223676799 -14.007812326905677 M-89.16737223676799 -14.007812326905677 C-88.81013407906973 -14.332246569723551, -88.45289592137145 -14.656680812541424, -88.2420162085019 -14.848196188198107 M-89.16737223676799 -14.007812326905677 C-88.90459112901767 -14.2464631761574, -88.64181002126737 -14.485114025409125, -88.2420162085019 -14.848196188198107 M-88.2420162085019 -14.848196188198107 C-88.02746029458552 -15.019298819973756, -87.81290438066915 -15.190401451749402, -87.26471784457871 -15.627565626425149 M-88.2420162085019 -14.848196188198107 C-87.95653930908655 -15.075856418622497, -87.67106240967122 -15.303516649046884, -87.26471784457871 -15.627565626425149 M-87.26471784457871 -15.627565626425149 C-87.05929430080594 -15.770860197919145, -86.85387075703318 -15.914154769413143, -86.23949307360571 -16.342718045390885 M-87.26471784457871 -15.627565626425149 C-86.89326770884313 -15.886673161297086, -86.52181757310753 -16.14578069616902, -86.23949307360571 -16.342718045390885 M-86.23949307360571 -16.342718045390885 C-85.84492591105945 -16.581906978060452, -85.45035874851318 -16.82109591073002, -85.17055476407678 -16.99071473040609 M-86.23949307360571 -16.342718045390885 C-85.83259525755182 -16.589381892679746, -85.4256974414979 -16.836045739968604, -85.17055476407678 -16.99071473040609 M-85.17055476407678 -16.99071473040609 C-84.73894433414138 -17.215885615243717, -84.30733390420598 -17.44105650008135, -84.0622954127924 -17.56889292409717 M-85.17055476407678 -16.99071473040609 C-84.73288786971004 -17.2190452688582, -84.29522097534328 -17.447375807310312, -84.0622954127924 -17.56889292409717 M-84.0622954127924 -17.56889292409717 C-83.70146118688031 -17.72862353214144, -83.34062696096824 -17.888354140185715, -82.91926909514781 -18.07487676824742 M-84.0622954127924 -17.56889292409717 C-83.67707860526785 -17.73941697773769, -83.29186179774332 -17.909941031378214, -82.91926909514781 -18.07487676824742 M-82.91926909514781 -18.07487676824742 C-82.63607211367471 -18.179095875273717, -82.35287513220163 -18.283314982300016, -81.74617275146062 -18.506587066708033 M-82.91926909514781 -18.07487676824742 C-82.52698165257965 -18.219242173377875, -82.13469421001147 -18.363607578508326, -81.74617275146062 -18.506587066708033 M-81.74617275146062 -18.506587066708033 C-81.39257673900924 -18.611532507140257, -81.03898072655785 -18.716477947572486, -80.54782688623541 -18.862249829261067 M-81.74617275146062 -18.506587066708033 C-81.27286815452655 -18.647061386651536, -80.79956355759248 -18.78753570659504, -80.54782688623541 -18.862249829261067 M-80.54782688623541 -18.862249829261067 C-80.25120300490083 -18.929952294523964, -79.95457912356625 -18.99765475978686, -79.32915575967677 -19.140403561325773 M-80.54782688623541 -18.862249829261067 C-80.2949965952881 -18.919956693297955, -80.04216630434078 -18.977663557334843, -79.32915575967677 -19.140403561325773 M-79.32915575967677 -19.140403561325773 C-78.86330013519513 -19.21571948592764, -78.3974445107135 -19.291035410529506, -78.09516715284788 -19.3399052695533 M-79.32915575967677 -19.140403561325773 C-79.05123086025166 -19.185336303725038, -78.77330596082656 -19.230269046124302, -78.09516715284788 -19.3399052695533 M-78.09516715284788 -19.3399052695533 C-77.65922791991903 -19.381959803060308, -77.22328868699019 -19.42401433656732, -76.8509317896239 -19.45993515863156 M-78.09516715284788 -19.3399052695533 C-77.6272991439213 -19.38503993368084, -77.15943113499475 -19.430174597808378, -76.8509317896239 -19.45993515863156 M-76.8509317896239 -19.45993515863156 C-76.41365456196615 -19.473957788214054, -75.97637733430841 -19.487980417796546, -75.6015625 -19.5 M-76.8509317896239 -19.45993515863156 C-76.58862344050738 -19.468346876835497, -76.32631509139087 -19.476758595039435, -75.6015625 -19.5 M-75.6015625 -19.5 C-75.6015625 -19.5, -75.6015625 -19.5, -75.6015625 -19.5 M-75.6015625 -19.5 C-75.6015625 -19.5, -75.6015625 -19.5, -75.6015625 -19.5" stroke="#ccc" stroke-width="1.3" fill="none" stroke-dasharray="0 0" style=""></path></g><g class="label" style="" transform="translate(-82.7265625, -12)"><rect></rect><foreignObject width="165.453125" height="24"><div xmlns="http://www.w3.org/1999/xhtml" style="display: table-cell; white-space: nowrap; line-height: 1.5; max-width: 200px; text-align: center;"><span class="nodeLabel"><p>Start Schema Selection</p></span></div></foreignObject></g></g><g class="node default" id="flowchart-Q1-1" transform="translate(361.71484375, 226.703125)"><polygon points="129.703125,0 259.40625,-129.703125 129.703125,-259.40625 0,-129.703125" class="label-container" transform="translate(-129.203125, 129.703125)"></polygon><g class="label" style="" transform="translate(-78.703125, -36)"><rect></rect><foreignObject width="157.40625" height="72"><div xmlns="http://www.w3.org/1999/xhtml" style="display: table-cell; white-space: nowrap; line-height: 1.5; max-width: 200px; text-align: center;"><span class="nodeLabel"><p>Is the database <br/>small, simple, and <br/>without relationships?</p></span></div></foreignObject></g></g><g class="node default" id="flowchart-Flat-3" transform="translate(216.234375, 548.625)"><rect class="basic label-container" style="" x="-122.7421875" y="-51" width="245.484375" height="102"></rect><g class="label" style="" transform="translate(-92.7421875, -36)"><rect></rect><foreignObject width="185.484375" height="72"><div xmlns="http://www.w3.org/1999/xhtml" style="display: table-cell; white-space: nowrap; line-height: 1.5; max-width: 200px; text-align: center;"><span class="nodeLabel"><p><b>Flat Model</b><br/>Best for isolated data like <br/>CSV files or bakery logs</p></span></div></foreignObject></g></g><g class="node default" id="flowchart-Q2-5" transform="translate(507.1953125, 548.625)"><polygon points="118.21875,0 236.4375,-118.21875 118.21875,-236.4375 0,-118.21875" class="label-container" transform="translate(-117.71875, 118.21875)"></polygon><g class="label" style="" transform="translate(-67.21875, -36)"><rect></rect><foreignObject width="134.4375" height="72"><div xmlns="http://www.w3.org/1999/xhtml" style="display: table-cell; white-space: nowrap; line-height: 1.5; max-width: 200px; text-align: center;"><span class="nodeLabel"><p>Is the primary goal <br/>Analytics, BI, or <br/>Big Data metrics?</p></span></div></foreignObject></g></g><g class="node default" id="flowchart-Q3-7" transform="translate(290.84375, 873.7109375)"><polygon points="132.8671875,0 265.734375,-132.8671875 132.8671875,-265.734375 0,-132.8671875" class="label-container" transform="translate(-132.3671875, 132.8671875)"></polygon><g class="label" style="" transform="translate(-81.8671875, -36)"><rect></rect><foreignObject width="163.734375" height="72"><div xmlns="http://www.w3.org/1999/xhtml" style="display: table-cell; white-space: nowrap; line-height: 1.5; max-width: 200px; text-align: center;"><span class="nodeLabel"><p>Does it require <br/>complex normalization <br/>to save disk space?</p></span></div></foreignObject></g></g><g class="node default" id="flowchart-Snowflake-9" transform="translate(136.5625, 1220.34375)"><rect class="basic label-container" style="" x="-128.5625" y="-51" width="257.125" height="102"></rect><g class="label" style="" transform="translate(-98.5625, -36)"><rect></rect><foreignObject width="197.125" height="72"><div xmlns="http://www.w3.org/1999/xhtml" style="display: table-cell; white-space: nowrap; line-height: 1.5; max-width: 200px; text-align: center;"><span class="nodeLabel"><p><b>Snowflake Schema</b><br/>Best for advanced analytics <br/>with child dimensions</p></span></div></foreignObject></g></g><g class="node default" id="flowchart-Star-11" transform="translate(445.125, 1220.34375)"><rect class="basic label-container" style="" x="-130" y="-63" width="260" height="126"></rect><g class="label" style="" transform="translate(-100, -48)"><rect></rect><foreignObject width="200" height="96"><div xmlns="http://www.w3.org/1999/xhtml" style="display: table; white-space: break-spaces; line-height: 1.5; max-width: 200px; text-align: center; width: 200px;"><span class="nodeLabel"><p><b>Star Schema</b><br/>Best for rapid querying <br/>and reconstructing data marts</p></span></div></foreignObject></g></g><g class="node default" id="flowchart-Q4-13" transform="translate(808.38671875, 873.7109375)"><polygon points="109.7265625,0 219.453125,-109.7265625 109.7265625,-219.453125 0,-109.7265625" class="label-container" transform="translate(-109.2265625, 109.7265625)"></polygon><g class="label" style="" transform="translate(-58.7265625, -36)"><rect></rect><foreignObject width="117.453125" height="72"><div xmlns="http://www.w3.org/1999/xhtml" style="display: table-cell; white-space: nowrap; line-height: 1.5; max-width: 200px; text-align: center;"><span class="nodeLabel"><p>Is the focus on <br/>Object-Oriented <br/>Programming?</p></span></div></foreignObject></g></g><g class="node default" id="flowchart-Relational-15" transform="translate(738.9453125, 1220.34375)"><rect class="basic label-container" style="" x="-113.8203125" y="-51" width="227.640625" height="102"></rect><g class="label" style="" transform="translate(-83.8203125, -36)"><rect></rect><foreignObject width="167.640625" height="72"><div xmlns="http://www.w3.org/1999/xhtml" style="display: table-cell; white-space: nowrap; line-height: 1.5; max-width: 200px; text-align: center;"><span class="nodeLabel"><p><b>Relational Model</b><br/>Best for state/behavior <br/>focus, e.g., hospitals</p></span></div></foreignObject></g></g><g class="node default" id="flowchart-Q5-17" transform="translate(1042.53125, 1220.34375)"><polygon points="139.765625,0 279.53125,-139.765625 139.765625,-279.53125 0,-139.765625" class="label-container" transform="translate(-139.265625, 139.765625)"></polygon><g class="label" style="" transform="translate(-88.765625, -36)"><rect></rect><foreignObject width="177.53125" height="72"><div xmlns="http://www.w3.org/1999/xhtml" style="display: table-cell; white-space: nowrap; line-height: 1.5; max-width: 200px; text-align: center;"><span class="nodeLabel"><p>Is a tree-like <br/>hierarchy needed for <br/>fast additions/deletions?</p></span></div></foreignObject></g></g><g class="node default" id="flowchart-Q6-19" transform="translate(1042.53125, 1556.75)"><polygon points="122.640625,0 245.28125,-122.640625 122.640625,-245.28125 0,-122.640625" class="label-container" transform="translate(-122.140625, 122.640625)"></polygon><g class="label" style="" transform="translate(-71.640625, -36)"><rect></rect><foreignObject width="143.28125" height="72"><div xmlns="http://www.w3.org/1999/xhtml" style="display: table-cell; white-space: nowrap; line-height: 1.5; max-width: 200px; text-align: center;"><span class="nodeLabel"><p>Can a child record <br/>have more than one <br/>parent category?</p></span></div></foreignObject></g></g><g class="node default" id="flowchart-Network-21" transform="translate(896.4609375, 1816.390625)"><rect class="basic label-container" style="" x="-112.140625" y="-51" width="224.28125" height="102"></rect><g class="label" style="" transform="translate(-82.140625, -36)"><rect></rect><foreignObject width="164.28125" height="72"><div xmlns="http://www.w3.org/1999/xhtml" style="display: table-cell; white-space: nowrap; line-height: 1.5; max-width: 200px; text-align: center;"><span class="nodeLabel"><p><b>Network Model</b><br/>Best for many-to-many <br/>links, e.g., sports sites</p></span></div></foreignObject></g></g><g class="node default" id="flowchart-Hierarchical-23" transform="translate(1188.6015625, 1816.390625)"><rect class="basic label-container" style="" x="-130" y="-63" width="260" height="126"></rect><g class="label" style="" transform="translate(-100, -48)"><rect></rect><foreignObject width="200" height="96"><div xmlns="http://www.w3.org/1999/xhtml" style="display: table; white-space: break-spaces; line-height: 1.5; max-width: 200px; text-align: center; width: 200px;"><span class="nodeLabel"><p><b>Hierarchical Model</b><br/>Best for banking, healthcare, <br/>and telecommunications</p></span></div></foreignObject></g></g></g></g></g></g></svg>